<svg xmlns="http://www.w3.org/2000/svg" viewBox="0 0 179.13 112.14"><defs><style>.a{fill:#8c6239;}</style></defs><path class="a" d="M199.16,63.93H112.57a10.41,10.41,0,0,0-10.41,10.41l.06,5.13-5.57.09L75,141,53.24,79.56H30.44v84.71H47.89V141.11L46.14,101.2,69,164.27h12l22.86-63.13-1.74,40v23.16h.1v1.39a10.41,10.41,0,0,0,10.41,10.41h86.59a10.4,10.4,0,0,0,10.4-10.41V138.9q0,12.21-7.79,18.5t-22.23,6.4H148.07q14.43-.12,22.22-6.4a19.62,19.62,0,0,0,5.78-7.62h3q6.16,0,9.63-2.94a10.08,10.08,0,0,0,3.46-8.12q0-11.64-12-11.81h-5.65l-.08-.12a18,18,0,0,0-10.27-6.57,18.74,18.74,0,0,0,7.92-5.64h5q13.22-.24,13.21-10.54,0-5.76-3.35-8.29t-10.56-2.53h-1.7A18.68,18.68,0,0,0,168.2,85q-7.5-5.55-21.59-5.86v0h29.67q15.42,0,23.39,5.91t8,17.31a19.1,19.1,0,0,1-3.2,11,18.45,18.45,0,0,1-8.9,7,17.91,17.91,0,0,1,10.27,6.57,19.46,19.46,0,0,1,3.75,12.11V74.34A10.4,10.4,0,0,0,199.16,63.93ZM155.22,85q8,5.91,8,17.31a19.17,19.17,0,0,1-3.2,11,18.52,18.52,0,0,1-8.91,7,17.91,17.91,0,0,1,10.27,6.57,19.46,19.46,0,0,1,3.76,12.11q0,12.21-7.8,18.5t-22.23,6.4H119.57v-14h15q6.17,0,9.63-2.94a10.08,10.08,0,0,0,3.46-8.12q0-11.64-12-11.81H119.57V114.18l13,.4q13.22-.24,13.21-10.54,0-5.76-3.34-8.29t-10.56-2.53l-12.27.1,0-13.94,12.29-.3Q147.25,79.08,155.22,85Z" transform="translate(-30.44 -63.93)"/></svg>