<?xml version="1.0" encoding="utf-8"?>
<!-- Generator: Adobe Illustrator 24.2.3, SVG Export Plug-In . SVG Version: 6.00 Build 0)  -->
<svg version="1.1" id="Layer_1" xmlns="http://www.w3.org/2000/svg" xmlns:xlink="http://www.w3.org/1999/xlink" x="0px" y="0px"
	 viewBox="0 0 240 240" style="enable-background:new 0 0 240 240;" xml:space="preserve">
<style type="text/css">
	.st0{fill:#201A17;}
	.st1{fill:#FFB86B;}
</style>
<circle class="st0" cx="120.4" cy="120.1" r="120"/>
<path class="st1" d="M186.6,72.8h-72.9c-4.8,0-8.8,3.9-8.8,8.8l0,0l0.1,4.3l-4.7,0.1l-18.2,51.7L63.8,86H44.6v71.3h14.7v-19.5
	l-1.5-33.6l19.2,53.1h10.1l19.2-53.1l-1.5,33.7v19.5h0.1v1.2c0,4.8,3.9,8.8,8.8,8.8h0h72.9c4.8,0,8.8-3.9,8.8-8.8c0,0,0,0,0,0v-22.5
	c0,6.9-2.2,12-6.6,15.6c-4.4,3.5-10.6,5.3-18.7,5.4h-26.5c8.1-0.1,14.3-1.9,18.7-5.4c2.1-1.7,3.8-3.9,4.9-6.4h2.5
	c3.5,0,6.2-0.8,8.1-2.5c2-1.7,3-4.2,2.9-6.8c0-6.5-3.4-9.8-10.1-9.9h-4.8l-0.1-0.1c-2.2-2.8-5.2-4.7-8.6-5.5c2.6-1,4.9-2.6,6.7-4.7
	h4.2c7.4-0.1,11.1-3.1,11.1-8.9c0-3.2-0.9-5.6-2.8-7s-4.8-2.1-8.9-2.1H166c-1.1-2.8-3-5.2-5.5-6.9c-4.2-3.1-10.3-4.8-18.2-4.9h25
	c8.7,0,15.2,1.7,19.7,5c4.5,3.3,6.7,8.2,6.7,14.6c0.1,3.3-0.9,6.5-2.7,9.3c-1.8,2.7-4.4,4.8-7.5,5.9c3.4,0.8,6.5,2.7,8.6,5.5
	c2.2,3,3.3,6.5,3.2,10.2V81.6C195.4,76.7,191.5,72.8,186.6,72.8C186.7,72.8,186.6,72.8,186.6,72.8z M149.6,90.5
	c4.5,3.3,6.7,8.2,6.7,14.6c0.1,3.3-0.9,6.5-2.7,9.3c-1.8,2.7-4.4,4.8-7.5,5.9c3.4,0.8,6.5,2.7,8.6,5.5c2.2,2.9,3.3,6.5,3.2,10.2
	c0,6.9-2.2,12-6.6,15.6c-4.4,3.5-10.6,5.3-18.7,5.4h-13.1v-11.8h12.6c3.5,0,6.2-0.8,8.1-2.5c2-1.7,3-4.2,2.9-6.8
	c0-6.5-3.4-9.8-10.1-9.9h-13.5v-10.8l10.9,0.3c7.4-0.1,11.1-3.1,11.1-8.9c0-3.2-0.9-5.6-2.8-7c-1.9-1.4-4.8-2.1-8.9-2.1l-10.3,0.1
	V85.8l10.3-0.3C138.6,85.6,145.2,87.2,149.6,90.5L149.6,90.5z"/>
</svg>
