<?xml version="1.0" encoding="utf-8"?>
<!-- Generator: Adobe Illustrator 24.2.3, SVG Export Plug-In . SVG Version: 6.00 Build 0)  -->
<svg version="1.1" id="Layer_1" xmlns="http://www.w3.org/2000/svg" xmlns:xlink="http://www.w3.org/1999/xlink" x="0px" y="0px"
	 viewBox="0 0 240 240" style="enable-background:new 0 0 240 240;" xml:space="preserve">
<path d="M199.2,63.9h-86.6c-5.7,0-10.4,4.7-10.4,10.4l0,0l0.1,5.1l-5.6,0.1L75,141L53.2,79.6H30.4v84.7h17.5v-23.2l-1.8-39.9
	L69,164.3h12l22.9-63.1l-1.7,40v23.2h0.1v1.4c0,5.7,4.7,10.4,10.4,10.4h0h86.6c5.7,0,10.4-4.7,10.4-10.4c0,0,0,0,0,0v-26.8
	c0,8.1-2.6,14.3-7.8,18.5s-12.6,6.3-22.2,6.4h-31.5c9.6-0.1,17-2.2,22.2-6.4c2.5-2,4.5-4.6,5.8-7.6h3c4.1,0,7.3-1,9.6-2.9
	c2.3-2,3.6-5,3.5-8.1c0-7.8-4-11.7-12-11.8h-5.6l-0.1-0.1c-2.6-3.3-6.2-5.6-10.3-6.6c3.1-1.2,5.8-3.1,7.9-5.6h5
	c8.8-0.2,13.2-3.7,13.2-10.5c0-3.8-1.1-6.6-3.4-8.3s-5.8-2.5-10.6-2.5h-1.7c-1.3-3.3-3.6-6.2-6.5-8.2c-5-3.7-12.2-5.7-21.6-5.9h29.7
	c10.3,0,18.1,2,23.4,5.9c5.3,3.9,8,9.7,8,17.3c0.1,3.9-1,7.7-3.2,11c-2.2,3.2-5.3,5.7-8.9,7c4.1,0.9,7.7,3.2,10.3,6.6
	c2.6,3.5,3.9,7.8,3.8,12.1V74.3C209.6,68.6,204.9,63.9,199.2,63.9C199.2,63.9,199.2,63.9,199.2,63.9z M155.2,85
	c5.3,3.9,8,9.7,8,17.3c0.1,3.9-1,7.7-3.2,11c-2.2,3.2-5.3,5.7-8.9,7c4.1,0.9,7.7,3.2,10.3,6.6c2.6,3.5,3.9,7.8,3.8,12.1
	c0,8.1-2.6,14.3-7.8,18.5s-12.6,6.3-22.2,6.4h-15.5v-14h15c4.1,0,7.3-1,9.6-2.9c2.3-2,3.6-5,3.5-8.1c0-7.8-4-11.7-12-11.8h-16.1
	v-12.8l13,0.4c8.8-0.2,13.2-3.7,13.2-10.5c0-3.8-1.1-6.6-3.3-8.3c-2.2-1.7-5.7-2.5-10.6-2.5l-12.3,0.1V79.4l12.3-0.3
	C142.1,79.1,149.9,81.1,155.2,85L155.2,85z"/>
</svg>
