<svg xmlns="http://www.w3.org/2000/svg" xmlns:xlink="http://www.w3.org/1999/xlink" style="isolation:isolate" width="30.664" height="24.915" viewBox="153.827 247.598 22.998 18.686"><path fill="#2D1C17" d="M 175.387 250.473 L 172.513 250.473 L 172.513 249.035 C 172.513 248.242 171.87 247.598 171.075 247.598 L 155.264 247.598 C 154.47 247.598 153.827 248.242 153.827 249.035 L 153.827 260.535 C 153.827 261.329 154.47 261.972 155.264 261.972 L 161.732 261.972 L 160.295 264.847 L 166.044 264.847 L 164.607 261.972 L 169.638 261.972 L 169.638 264.847 C 169.638 265.641 170.281 266.284 171.075 266.284 L 175.387 266.284 C 176.182 266.284 176.825 265.641 176.825 264.847 L 176.825 251.91 C 176.825 251.117 176.182 250.473 175.387 250.473 Z M 155.264 259.097 L 155.264 249.035 L 171.075 249.035 L 171.075 250.473 C 170.281 250.473 169.638 251.117 169.638 251.91 L 169.638 259.097 L 155.264 259.097 Z M 173.231 264.847 C 172.834 264.847 172.513 264.525 172.513 264.128 C 172.513 263.731 172.834 263.409 173.231 263.409 C 173.629 263.409 173.95 263.731 173.95 264.128 C 173.95 264.525 173.629 264.847 173.231 264.847 Z M 173.231 261.972 C 172.834 261.972 172.513 261.65 172.513 261.253 C 172.513 260.856 172.834 260.535 173.231 260.535 C 173.629 260.535 173.95 260.856 173.95 261.253 C 173.95 261.65 173.629 261.972 173.231 261.972 Z M 175.387 256.222 L 172.513 256.222 L 171.075 256.222 L 171.075 254.785 L 175.387 254.785 L 175.387 256.222 Z M 175.387 253.348 L 171.075 253.348 L 171.075 251.91 L 175.387 251.91 L 175.387 253.348 Z"/></svg>