<svg xmlns="http://www.w3.org/2000/svg" xmlns:xlink="http://www.w3.org/1999/xlink" style="isolation:isolate" width="11.339" height="13.311" viewBox="453.489 152.972 8.504 9.983"><g style="opacity:.8"><g><g><path fill="#FFF" d="M 461.657 161.951 L 461.447 161.951 L 461.447 160.952 C 461.413 160.972 461.373 160.985 461.329 160.985 C 460.887 160.985 460.534 160.852 460.28 160.592 C 460.228 160.538 460.183 160.482 460.144 160.424 C 460.113 160.472 460.077 160.519 460.036 160.564 C 459.784 160.843 459.41 160.984 458.926 160.984 C 458.483 160.984 458.13 160.852 457.876 160.591 C 457.824 160.537 457.779 160.481 457.74 160.423 C 457.709 160.471 457.673 160.518 457.632 160.563 C 457.379 160.843 457.006 160.984 456.522 160.984 C 456.079 160.984 455.726 160.852 455.472 160.591 C 455.42 160.537 455.375 160.481 455.336 160.423 C 455.305 160.471 455.269 160.518 455.228 160.563 C 454.976 160.842 454.602 160.984 454.118 160.984 C 454.087 160.984 454.059 160.977 454.032 160.967 L 454.032 161.95 L 453.824 161.95 C 453.639 161.95 453.489 162.1 453.489 162.285 L 453.489 162.62 C 453.489 162.805 453.639 162.955 453.824 162.955 L 461.657 162.955 C 461.842 162.955 461.993 162.805 461.993 162.62 L 461.993 162.285 C 461.993 162.101 461.842 161.951 461.657 161.951 Z"/><path fill="#FFF" d="M 454.884 160.252 C 455.063 160.055 455.088 159.788 455.089 159.673 C 455.086 159.622 455.087 159.59 455.087 159.585 C 455.091 159.462 455.189 159.363 455.311 159.359 C 455.434 159.355 455.539 159.446 455.55 159.569 C 455.551 159.573 455.554 159.605 455.554 159.656 C 455.563 159.777 455.607 160.065 455.809 160.271 C 455.972 160.437 456.212 160.52 456.523 160.52 C 456.87 160.52 457.128 160.431 457.288 160.253 C 457.468 160.055 457.492 159.789 457.493 159.673 C 457.49 159.622 457.491 159.59 457.491 159.585 C 457.494 159.463 457.592 159.364 457.714 159.359 C 457.837 159.355 457.942 159.446 457.954 159.569 C 457.954 159.574 457.957 159.606 457.958 159.656 C 457.967 159.778 458.011 160.066 458.213 160.271 C 458.376 160.437 458.615 160.521 458.926 160.521 C 459.274 160.521 459.531 160.431 459.692 160.253 C 459.87 160.056 459.895 159.789 459.896 159.674 C 459.893 159.623 459.894 159.591 459.894 159.586 C 459.898 159.463 459.995 159.364 460.118 159.36 C 460.238 159.356 460.345 159.447 460.358 159.569 C 460.358 159.574 460.361 159.606 460.361 159.656 C 460.37 159.778 460.414 160.066 460.616 160.272 C 460.779 160.438 461.019 160.521 461.329 160.521 C 461.373 160.521 461.412 160.534 461.447 160.554 L 461.447 159.48 C 461.447 159.295 461.298 159.145 461.112 159.145 L 460.893 159.145 L 460.893 158.295 C 460.864 158.312 460.83 158.323 460.793 158.323 C 460.416 158.323 460.116 158.211 459.901 157.989 C 459.856 157.943 459.818 157.895 459.785 157.846 C 459.758 157.887 459.728 157.927 459.693 157.966 C 459.478 158.203 459.161 158.324 458.748 158.324 C 458.372 158.324 458.072 158.211 457.856 157.989 C 457.811 157.944 457.774 157.896 457.74 157.847 C 457.714 157.887 457.683 157.928 457.649 157.966 C 457.434 158.203 457.116 158.324 456.705 158.324 C 456.328 158.324 456.028 158.211 455.812 157.989 C 455.768 157.944 455.73 157.896 455.696 157.847 C 455.67 157.888 455.639 157.928 455.604 157.966 C 455.389 158.204 455.072 158.324 454.66 158.324 C 454.634 158.324 454.609 158.319 454.587 158.31 L 454.587 159.146 L 454.368 159.146 C 454.183 159.146 454.033 159.296 454.033 159.481 L 454.033 160.539 C 454.06 160.528 454.088 160.522 454.119 160.522 C 454.466 160.52 454.724 160.43 454.884 160.252 Z"/><path fill="#FFF" d="M 455.311 157.699 C 455.463 157.531 455.485 157.304 455.486 157.206 C 455.483 157.163 455.483 157.136 455.483 157.131 C 455.486 157.027 455.57 156.943 455.674 156.939 C 455.779 156.936 455.867 157.014 455.877 157.117 C 455.878 157.122 455.881 157.149 455.881 157.191 C 455.889 157.295 455.926 157.54 456.097 157.715 C 456.236 157.856 456.44 157.927 456.705 157.927 C 457 157.927 457.219 157.85 457.356 157.699 C 457.508 157.531 457.529 157.304 457.53 157.206 C 457.527 157.163 457.528 157.136 457.528 157.131 C 457.531 157.027 457.615 156.943 457.719 156.939 C 457.823 156.936 457.912 157.014 457.922 157.117 C 457.923 157.122 457.925 157.149 457.925 157.191 C 457.933 157.295 457.97 157.54 458.142 157.715 C 458.28 157.856 458.485 157.927 458.749 157.927 C 459.045 157.927 459.264 157.85 459.401 157.699 C 459.553 157.531 459.574 157.304 459.575 157.206 C 459.572 157.163 459.572 157.136 459.572 157.131 C 459.576 157.027 459.659 156.943 459.763 156.939 C 459.866 156.936 459.956 157.014 459.967 157.117 C 459.967 157.122 459.97 157.149 459.971 157.191 C 459.979 157.295 460.015 157.54 460.187 157.715 C 460.325 157.856 460.529 157.927 460.794 157.927 C 460.831 157.927 460.865 157.938 460.894 157.955 L 460.894 157.042 C 460.894 156.884 460.767 156.757 460.609 156.757 L 458.433 156.757 L 458.433 154.926 C 458.433 154.926 458.63 154.708 458.433 154.722 C 458.235 154.735 458.12 154.87 457.796 154.95 C 457.762 154.959 457.731 154.964 457.7 154.97 C 457.713 154.901 457.745 154.833 457.81 154.773 C 457.917 154.674 457.969 154.565 457.965 154.452 C 457.958 154.275 457.813 154.157 457.807 154.152 C 457.78 154.131 457.742 154.135 457.721 154.161 C 457.7 154.188 457.704 154.226 457.73 154.247 C 457.731 154.248 457.839 154.337 457.843 154.458 C 457.845 154.534 457.805 154.61 457.726 154.684 C 457.628 154.775 457.586 154.882 457.576 154.989 C 457.425 155.007 457.221 154.992 457.049 154.967 C 456.877 154.941 457.049 155.201 457.049 155.201 L 457.049 156.756 L 454.872 156.756 C 454.715 156.756 454.587 156.884 454.587 157.041 L 454.587 157.941 C 454.609 157.932 454.634 157.927 454.66 157.927 C 454.956 157.927 455.174 157.85 455.311 157.699 Z"/><g><path fill="#FFF" d="M 457.632 152.972 C 456.656 154.108 457.312 154.64 457.496 154.758 C 457.526 154.703 457.564 154.652 457.613 154.607 C 457.649 154.573 457.692 154.523 457.69 154.474 C 457.688 154.422 457.638 154.368 457.621 154.353 C 457.544 154.29 457.532 154.175 457.595 154.097 C 457.625 154.059 457.668 154.035 457.717 154.03 C 457.766 154.023 457.814 154.038 457.852 154.068 C 457.872 154.085 458.048 154.233 458.056 154.459 C 458.06 154.555 458.031 154.646 457.977 154.733 C 458.03 154.745 458.105 154.703 458.242 154.518 C 458.628 153.624 457.632 152.972 457.632 152.972 Z"/></g></g></g></g></svg>