<svg xmlns="http://www.w3.org/2000/svg" xmlns:xlink="http://www.w3.org/1999/xlink" style="isolation:isolate" width="13.228" height="13.669" viewBox="454.198 181.384 9.921 10.252"><g style="opacity:.8"><path fill="#FFF" d="M 464.117 182.19 C 463.548 182.653 462.93 183.095 462.209 183.28 C 461.781 183.39 461.323 183.369 460.908 183.22 C 460.215 182.975 459.643 182.483 458.952 182.235 C 458.546 182.082 458.101 182.041 457.674 182.111 C 457.041 182.214 456.465 182.521 455.934 182.869 C 455.932 184.718 455.934 186.567 455.934 188.416 C 456.476 188.061 457.067 187.747 457.716 187.651 C 458.184 187.579 458.668 187.652 459.101 187.84 C 459.687 188.083 460.192 188.483 460.781 188.719 C 461.193 188.888 461.654 188.945 462.092 188.853 C 462.86 188.691 463.518 188.226 464.116 187.739 C 464.121 185.889 464.118 184.039 464.117 182.19 Z"/><path fill="#FFF" d="M 455.37 190.278 L 455.37 182.742 C 455.563 182.608 455.689 182.384 455.689 182.13 C 455.689 181.718 455.356 181.384 454.944 181.384 C 454.532 181.384 454.198 181.718 454.198 182.13 C 454.198 182.384 454.324 182.608 454.517 182.742 L 454.517 190.278 C 454.324 190.413 454.198 190.637 454.198 190.89 C 454.198 191.302 454.532 191.636 454.944 191.636 C 455.356 191.636 455.689 191.302 455.689 190.89 C 455.689 190.637 455.563 190.413 455.37 190.278 Z"/></g></svg>