<?xml version="1.0" encoding="UTF-8" standalone="no"?><!-- Generator: Gravit.io --><svg xmlns="http://www.w3.org/2000/svg" xmlns:xlink="http://www.w3.org/1999/xlink" style="isolation:isolate" viewBox="284.175 766.902 26.926 19.582" width="26.926pt" height="19.582pt"><path d=" M 308.653 766.902 L 286.623 766.902 C 285.271 766.902 284.175 767.998 284.175 769.35 L 284.175 784.036 C 284.175 785.388 285.271 786.484 286.623 786.484 L 308.653 786.484 C 310.005 786.484 311.101 785.388 311.101 784.036 L 311.101 769.35 C 311.101 767.998 310.005 766.902 308.653 766.902 Z  M 308.653 784.036 L 286.623 784.036 L 286.623 775.469 L 287.847 775.469 L 287.847 781.589 L 290.294 781.589 L 290.294 775.469 L 291.518 775.469 L 291.518 781.589 L 293.966 781.589 L 293.966 775.469 L 297.638 775.469 L 297.638 781.589 L 300.086 781.589 L 300.086 775.469 L 301.309 775.469 L 301.309 781.589 L 303.757 781.589 L 303.757 775.469 L 304.981 775.469 L 304.981 781.589 L 307.429 781.589 L 307.429 775.469 L 308.653 775.469 L 308.653 784.036 Z " fill="rgb(45,28,23)"/></svg>