<svg xmlns="http://www.w3.org/2000/svg" xmlns:xlink="http://www.w3.org/1999/xlink" style="isolation:isolate" width="26.256" height="27.545" viewBox="175.641 766.363 19.692 20.659"><path fill="#2D1C17" d="M 195.104 768.551 C 195.079 768.51 195.055 768.474 195.026 768.433 C 194.997 768.396 194.969 768.359 194.936 768.322 C 194.87 768.252 194.801 768.187 194.727 768.134 C 194.706 768.121 194.69 768.105 194.67 768.093 C 194.611 768.052 194.549 768.017 194.485 767.986 C 194.293 767.892 194.075 767.839 193.846 767.839 L 192.371 767.839 L 192.371 766.855 C 192.371 766.585 192.15 766.363 191.879 766.363 C 191.609 766.363 191.388 766.585 191.388 766.855 L 191.388 767.839 L 188.437 767.839 L 188.437 766.855 C 188.437 766.585 188.216 766.363 187.946 766.363 C 187.675 766.363 187.454 766.585 187.454 766.855 L 187.454 767.839 L 183.521 767.839 L 183.521 766.855 C 183.521 766.585 183.299 766.363 183.029 766.363 C 182.759 766.363 182.537 766.585 182.537 766.855 L 182.537 767.839 L 179.587 767.839 L 179.587 766.855 C 179.587 766.585 179.366 766.363 179.096 766.363 C 178.825 766.363 178.604 766.585 178.604 766.855 L 178.604 767.839 L 177.129 767.839 C 176.899 767.839 176.682 767.892 176.49 767.986 C 176.425 768.017 176.364 768.052 176.305 768.093 C 176.285 768.105 176.268 768.121 176.248 768.134 C 176.174 768.191 176.1 768.252 176.039 768.322 C 176.006 768.359 175.977 768.392 175.949 768.433 C 175.92 768.47 175.895 768.51 175.871 768.551 C 175.732 768.783 175.658 769.048 175.658 769.318 L 175.658 772.514 L 195.333 772.514 L 195.333 773.005 L 175.641 773.005 L 175.641 784.072 C 175.642 784.342 175.715 784.607 175.855 784.838 C 175.879 784.879 175.904 784.916 175.932 784.957 C 175.961 784.994 175.99 785.031 176.023 785.068 C 176.039 785.084 176.055 785.101 176.072 785.121 C 176.121 785.17 176.174 785.22 176.231 785.26 C 176.252 785.273 176.268 785.289 176.289 785.301 C 176.347 785.342 176.409 785.377 176.473 785.408 C 176.666 785.502 176.883 785.555 177.112 785.555 L 193.838 785.555 C 194.067 785.555 194.284 785.502 194.477 785.408 C 194.541 785.377 194.603 785.342 194.661 785.301 C 194.682 785.289 194.698 785.273 194.719 785.26 C 194.795 785.204 194.865 785.14 194.928 785.068 C 194.96 785.031 194.989 784.998 195.018 784.957 C 195.047 784.92 195.071 784.879 195.096 784.838 C 195.235 784.607 195.308 784.342 195.309 784.072 L 195.309 769.318 C 195.309 769.137 195.276 768.969 195.219 768.81 C 195.194 768.719 195.153 768.633 195.104 768.551 L 195.104 768.551 Z M 179.579 771.284 C 179.034 771.284 178.596 770.846 178.596 770.301 C 178.596 769.756 179.034 769.318 179.579 769.318 C 180.124 769.318 180.562 769.756 180.562 770.301 C 180.562 770.842 180.12 771.284 179.579 771.284 Z M 183.021 771.284 C 182.476 771.284 182.037 770.846 182.037 770.301 C 182.037 769.756 182.476 769.318 183.021 769.318 C 183.566 769.318 184.004 769.756 184.004 770.301 C 184.004 770.844 183.564 771.284 183.021 771.284 Z M 187.942 771.284 C 187.397 771.284 186.958 770.846 186.958 770.301 C 186.958 769.756 187.397 769.318 187.942 769.318 C 188.487 769.318 188.925 769.756 188.925 770.301 C 188.925 770.842 188.483 771.284 187.942 771.284 Z M 191.383 771.284 C 190.839 771.284 190.4 770.846 190.4 770.301 C 190.4 769.756 190.839 769.318 191.383 769.318 C 191.928 769.318 192.367 769.756 192.367 770.301 C 192.367 770.844 191.927 771.284 191.383 771.284 Z M 192.613 783.581 C 192.613 783.716 192.502 783.826 192.367 783.826 L 178.596 783.826 C 178.46 783.826 178.35 783.716 178.35 783.581 L 178.35 776.693 C 178.35 776.558 178.46 776.447 178.596 776.447 L 192.367 776.447 C 192.502 776.447 192.613 776.558 192.613 776.693 L 192.613 783.581 Z M 192.367 774.972 L 178.596 774.972 C 178.46 774.972 178.35 774.861 178.35 774.726 C 178.35 774.591 178.46 774.48 178.596 774.48 L 192.367 774.48 C 192.502 774.48 192.613 774.591 192.613 774.726 C 192.613 774.861 192.502 774.972 192.367 774.972 Z M 178.104 786.039 L 179.087 786.039 L 179.087 787.022 L 178.104 787.022 L 178.104 786.039 Z M 191.875 786.039 L 192.859 786.039 L 192.859 787.022 L 191.875 787.022 L 191.875 786.039 Z"/></svg>