<?xml version="1.0" encoding="UTF-8" standalone="no"?><!-- Generator: Gravit.io --><svg xmlns="http://www.w3.org/2000/svg" xmlns:xlink="http://www.w3.org/1999/xlink" style="isolation:isolate" viewBox="61.186 764.542 24.302 24.302" width="24.302pt" height="24.302pt"><g><path d=" M 70.299 783.275 L 76.375 783.275 L 76.375 786.312 L 70.299 786.312 L 70.299 783.275 Z " fill="rgb(45,28,23)"/><path d=" M 85.488 788.844 L 61.186 788.844 L 64.426 785.806 L 82.248 785.806 L 85.488 788.844 Z " fill="rgb(45,28,23)"/><path d=" M 79.109 774.162 L 75.362 770.415 L 76.678 769.099 L 81.741 774.162 L 76.678 779.224 L 75.362 777.908 L 79.109 774.162 Z " fill="rgb(45,28,23)"/><path d=" M 67.565 774.162 L 71.312 770.415 L 69.996 769.099 L 64.933 774.162 L 69.996 779.224 L 71.312 777.908 L 67.565 774.162 Z " fill="rgb(45,28,23)"/><path d=" M 84.576 764.542 L 62.098 764.542 C 61.591 764.542 61.186 764.947 61.186 765.453 L 61.186 782.768 C 61.186 783.376 61.591 783.781 62.098 783.781 L 84.475 783.781 C 84.981 783.781 85.387 783.376 85.387 782.87 L 85.387 765.453 C 85.488 764.947 85.083 764.542 84.576 764.542 Z  M 83.058 781.756 L 63.616 781.756 C 63.414 781.756 63.211 781.553 63.211 781.351 L 63.211 766.972 C 63.211 766.77 63.414 766.567 63.616 766.567 L 83.058 766.567 C 83.26 766.567 83.463 766.77 83.463 766.972 L 83.463 781.351 C 83.463 781.553 83.26 781.756 83.058 781.756 Z " fill="rgb(45,28,23)"/></g></svg>