<svg xmlns="http://www.w3.org/2000/svg" xmlns:xlink="http://www.w3.org/1999/xlink" style="isolation:isolate" width="34.424" height="32.819" viewBox="509.03 764.386 25.818 24.614"><g><path fill="#2D1C17" d="M 534.41 783.038 L 528.502 774.888 L 528.284 774.505 C 528.101 774.25 527.8 773.995 527.381 773.739 C 526.962 773.484 526.479 773.356 525.932 773.356 L 517.946 773.356 C 517.399 773.356 516.906 773.493 516.469 773.767 C 516.031 774.04 515.749 774.268 515.621 774.45 C 515.493 774.633 515.411 774.778 515.375 774.888 L 509.467 783.038 C 509.176 783.439 509.03 783.877 509.03 784.351 C 509.03 784.971 509.258 785.508 509.714 785.964 C 510.169 786.42 510.707 786.648 511.327 786.648 C 511.619 786.648 511.911 786.593 512.202 786.484 L 515.758 785.445 L 515.758 789 L 528.119 789 L 528.119 785.445 L 531.675 786.484 C 531.967 786.593 532.258 786.648 532.55 786.648 C 533.17 786.648 533.708 786.42 534.164 785.964 C 534.619 785.508 534.847 784.971 534.847 784.351 C 534.847 783.877 534.701 783.439 534.41 783.038 Z M 528.119 780.905 Q 527.961 780.862 527.682 780.741 C 527.062 780.595 526.506 780.595 526.014 780.741 C 525.521 780.886 525.166 781.16 524.947 781.561 C 524.728 781.962 524.61 782.382 524.591 782.819 C 524.573 783.257 524.728 783.685 525.056 784.105 C 525.385 784.524 525.859 784.825 526.479 785.007 L 526.533 785.007 L 521.939 786.539 L 517.344 785.007 L 517.453 785.007 C 518.037 784.825 518.493 784.524 518.821 784.105 C 519.149 783.685 519.304 783.257 519.286 782.819 C 519.268 782.382 519.149 781.962 518.93 781.561 C 518.711 781.16 518.356 780.886 517.864 780.741 C 517.371 780.595 516.815 780.595 516.195 780.741 L 515.758 780.905 L 515.758 776.146 L 521.939 778.17 L 528.119 776.146 Q 530.305 781.495 528.119 780.905 Z"/><path fill="#2D1C17" d="M 522.021 772.426 C 523.133 772.426 524.081 772.034 524.865 771.25 C 525.649 770.466 526.041 769.518 526.041 768.406 C 526.041 767.294 525.649 766.346 524.865 765.562 C 524.081 764.778 523.133 764.386 522.021 764.386 C 520.908 764.386 519.96 764.778 519.176 765.562 C 518.392 766.346 518 767.294 518 768.406 C 518 769.518 518.392 770.466 519.176 771.25 C 519.96 772.034 520.908 772.426 522.021 772.426 Z"/></g></svg>