<?xml version="1.0" encoding="UTF-8" standalone="no"?><!-- Generator: Gravit.io --><svg xmlns="http://www.w3.org/2000/svg" xmlns:xlink="http://www.w3.org/1999/xlink" style="isolation:isolate" viewBox="397.551 764.722 24.475 23.942" width="24.475pt" height="23.942pt"><g><circle vector-effect="non-scaling-stroke" cx="403.84392630336373" cy="768.8976377952756" r="2.125984251968532" fill="rgb(45,28,23)"/><circle vector-effect="non-scaling-stroke" cx="414.8162555897783" cy="768.4517159129393" r="2.1259842519684753" fill="rgb(45,28,23)"/><path d=" M 405.266 788.664 C 404.862 788.664 404.485 788.484 404.231 788.169 C 403.978 787.856 403.88 787.445 403.966 787.051 L 404.71 782.712 L 402.872 780.151 L 402.34 780.683 L 402.867 787.173 C 402.899 787.557 402.769 787.936 402.509 788.22 C 402.248 788.502 401.881 788.663 401.496 788.664 C 400.791 788.666 400.199 788.132 400.128 787.431 L 399.218 780.269 C 399.128 779.405 399.27 778.533 399.629 777.742 L 400.888 775.284 L 397.9 771.748 C 397.635 771.4 397.514 770.964 397.561 770.529 L 398.236 766.854 C 398.303 766.223 398.852 765.754 399.485 765.788 L 399.611 765.794 C 399.941 765.812 400.248 765.965 400.461 766.216 C 400.674 766.468 400.774 766.8 400.735 767.127 L 400.086 770.243 L 402.183 772.27 L 404.988 771.885 L 406.666 768.996 L 405.617 766.361 C 405.371 765.749 405.668 765.054 406.28 764.808 C 406.892 764.562 407.588 764.859 407.833 765.471 L 409.151 768.747 C 409.32 769.171 409.283 769.65 409.05 770.043 L 406.423 774.336 L 405.539 778.249 L 407.383 781.719 C 407.602 782.13 407.659 782.61 407.54 783.061 L 406.553 787.668 C 406.401 788.255 405.872 788.664 405.266 788.664 Z  M 410.739 788.664 L 410.579 788.664 C 410.18 788.665 409.803 788.485 409.552 788.175 C 409.3 787.866 409.201 787.46 409.284 787.07 L 410.322 783.21 C 410.367 782.995 410.441 782.79 410.541 782.598 L 412.637 778.56 C 412.828 778.015 413.123 776.28 412.98 775.363 L 411.328 777.347 L 410.49 779.85 C 410.303 780.458 409.667 780.808 409.053 780.641 C 408.432 780.468 408.066 779.828 408.232 779.205 L 409.054 776.443 C 409.152 776.08 409.333 775.746 409.584 775.465 L 411.729 772.908 C 412.058 772.537 412.496 772.279 412.98 772.171 L 416.472 771.357 L 418.402 768.522 L 419.485 765.688 C 419.665 765.004 420.36 764.591 421.047 764.761 C 421.39 764.846 421.675 765.061 421.852 765.368 C 422.029 765.674 422.072 766.03 421.974 766.369 L 420.688 769.635 C 420.682 769.656 420.673 769.677 420.662 769.697 L 418.301 773.767 C 418.301 775.95 417.796 777.531 417.639 777.992 L 419.191 781.263 C 419.307 781.509 419.381 781.772 419.409 782.043 L 419.89 787.205 C 419.928 787.577 419.807 787.948 419.556 788.226 C 419.305 788.504 418.949 788.663 418.574 788.664 C 417.901 788.665 417.334 788.159 417.259 787.489 L 416.756 782.539 L 415.108 780.151 L 413.032 783.861 L 412.036 787.607 C 411.908 788.222 411.367 788.663 410.739 788.664 Z " fill="rgb(45,28,23)"/></g></svg>