<svg xmlns="http://www.w3.org/2000/svg" xmlns:xlink="http://www.w3.org/1999/xlink" id="Layer_1" x="0" y="0" version="1.1" viewBox="0 0 24 24" style="enable-background:new 0 0 24 24" xml:space="preserve"><path d="M17.1,3.3c0,1.3-0.3,1.9-0.7,2.2c-0.4,0.3-1,0.4-1.7,0.5c-0.7,0.1-1.4,0.2-2.1,0.7c-0.5,0.4-0.9,1.1-1,2.2H3.1	c-0.9,0-1.7,0.8-1.7,1.7V19c0,0.9,0.8,1.7,1.7,1.7h17.8c0.9,0,1.7-0.8,1.7-1.7v-8.5c0-0.9-0.8-1.7-1.7-1.7h-8.4	c0.1-0.8,0.3-1.2,0.7-1.5c0.4-0.3,1-0.4,1.7-0.5c0.7-0.1,1.5-0.2,2.1-0.7c0.6-0.5,1-1.4,1-2.9H17.1z M3.1,9.7h17.8	c0.5,0,0.8,0.4,0.8,0.8V19c0,0.5-0.4,0.8-0.8,0.8H3.1c-0.5,0-0.8-0.4-0.8-0.8v-8.5C2.2,10.1,2.6,9.7,3.1,9.7z M3.5,11.4v1.7h1.7	v-1.7H3.5z M6.1,11.4v1.7h1.7v-1.7H6.1z M8.6,11.4v1.7h1.7v-1.7H8.6z M11.2,11.4v1.7h1.7v-1.7H11.2z M13.7,11.4v1.7h1.7v-1.7H13.7z M16.2,11.4v1.7h1.7v-1.7H16.2z M18.8,11.4v1.7h1.7v-1.7H18.8z M3.5,13.9v1.7h3v-1.7H3.5z M7.3,13.9v1.7H9v-1.7H7.3z M9.9,13.9v1.7	h1.7v-1.7H9.9z M12.4,13.9v1.7h1.7v-1.7H12.4z M15,13.9v1.7h1.7v-1.7H15z M17.5,13.9v1.7h3v-1.7H17.5z M3.5,16.5v1.7h1.7v-1.7H3.5z M6.1,16.5v1.7h1.7v-1.7H6.1z M8.6,16.5v1.7h6.8v-1.7H8.6z M16.2,16.5v1.7h1.7v-1.7H16.2z M18.8,16.5v1.7h1.7v-1.7H18.8z"/></svg>