<svg xmlns="http://www.w3.org/2000/svg" xml:space="preserve" style="enable-background:new 0 0 24 24" viewBox="0 0 24 24"><path d="M17.1 3.3c0 1.3-.3 1.9-.7 2.2-.4.3-1 .4-1.7.5-.7.1-1.4.2-2.1.7-.5.4-.9 1.1-1 2.2H3.1c-.9 0-1.7.8-1.7 1.7V19c0 .9.8 1.7 1.7 1.7h17.8c.9 0 1.7-.8 1.7-1.7v-8.5c0-.9-.8-1.7-1.7-1.7h-8.4c.1-.8.3-1.2.7-1.5.4-.3 1-.4 1.7-.5.7-.1 1.5-.2 2.1-.7.6-.5 1-1.4 1-2.9h-.9zm-14 6.4h17.8c.5 0 .8.4.8.8V19c0 .5-.4.8-.8.8H3.1c-.5 0-.8-.4-.8-.8v-8.5c-.1-.4.3-.8.8-.8zm.4 1.7v1.7h1.7v-1.7H3.5zm2.6 0v1.7h1.7v-1.7H6.1zm2.5 0v1.7h1.7v-1.7H8.6zm2.6 0v1.7h1.7v-1.7h-1.7zm2.5 0v1.7h1.7v-1.7h-1.7zm2.5 0v1.7h1.7v-1.7h-1.7zm2.6 0v1.7h1.7v-1.7h-1.7zM3.5 13.9v1.7h3v-1.7h-3zm3.8 0v1.7H9v-1.7H7.3zm2.6 0v1.7h1.7v-1.7H9.9zm2.5 0v1.7h1.7v-1.7h-1.7zm2.6 0v1.7h1.7v-1.7H15zm2.5 0v1.7h3v-1.7h-3zm-14 2.6v1.7h1.7v-1.7H3.5zm2.6 0v1.7h1.7v-1.7H6.1zm2.5 0v1.7h6.8v-1.7H8.6zm7.6 0v1.7h1.7v-1.7h-1.7zm2.6 0v1.7h1.7v-1.7h-1.7z"/></svg>