<svg xmlns="http://www.w3.org/2000/svg" xmlns:xlink="http://www.w3.org/1999/xlink" style="isolation:isolate" width="21.604" height="25.211" viewBox="20.531 247.718 16.203 18.908"><g><g><g><path fill="#2D1C17" d="M 28.643 250.161 L 22.388 247.954 L 22.388 261.567 L 28.643 259.543 L 28.643 250.161 Z"/><path fill="#FFF" d="M 28.493 250.154 L 34.987 247.947 L 34.987 261.559 L 28.493 259.536 L 28.493 250.154 Z"/><path fill="#FFF" d="M 20.767 263.949 L 28.493 261.374 L 28.493 250.152 L 20.767 252.728 L 20.767 263.949 Z"/><path fill="#000" d="M 32.014 264.119 L 33.109 265.921 L 33.686 264.247 L 32.014 264.119 Z"/><g><path fill="#2D1C17" d="M 23.189 261.185 L 23.044 260.02 L 26.526 258.955 L 26.671 260.121 L 27.603 259.836 L 27.343 257.754 L 26.682 257.956 L 26.111 253.308 L 22.463 254.423 L 22.648 256.469 C 22.802 258.051 22.839 258.767 22.43 259.256 L 21.997 259.388 L 22.257 261.47 L 23.189 261.185 Z M 25.645 258.273 L 23.544 258.915 L 23.542 258.865 C 23.792 258.34 23.736 257.562 23.623 256.323 L 23.513 255.05 L 25.188 254.538 L 25.645 258.273 Z"/></g><path fill="#2D1C17" fill-rule="evenodd" stroke="#2D1C17" stroke-linecap="butt" stroke-linejoin="miter" stroke-miterlimit="4" stroke-width=".069" d="M 24.381 264.999 C 24.502 265.073 24.616 265.133 24.743 265.194 C 24.998 265.321 25.287 265.455 25.562 265.556 C 25.937 265.697 26.313 265.811 26.688 265.898 C 26.896 265.945 27.124 265.985 27.345 266.019 C 27.365 266.019 27.962 266.092 28.083 266.092 L 28.686 266.092 C 28.921 266.072 29.142 266.059 29.377 266.025 C 29.565 265.998 29.773 265.965 29.974 265.918 C 30.121 265.884 30.276 265.851 30.423 265.804 C 30.564 265.764 30.725 265.71 30.879 265.656 C 30.98 265.623 31.087 265.576 31.194 265.536 C 31.281 265.496 31.389 265.449 31.489 265.408 C 31.61 265.355 31.751 265.281 31.885 265.214 C 31.992 265.16 32.113 265.093 32.227 265.026 C 32.314 264.979 32.515 264.825 32.623 264.825 C 32.743 264.825 32.824 264.932 32.824 265.026 C 32.824 265.221 32.562 265.281 32.442 265.368 C 32.314 265.455 32.16 265.522 32.026 265.596 C 31.758 265.737 31.483 265.858 31.221 265.958 C 30.879 266.086 30.504 266.206 30.168 266.287 C 30.041 266.314 29.913 266.347 29.786 266.367 C 29.719 266.381 29.022 266.488 28.827 266.488 L 27.942 266.488 C 27.707 266.468 27.459 266.441 27.225 266.407 C 27.017 266.374 26.795 266.334 26.587 266.287 C 26.427 266.253 26.252 266.206 26.098 266.159 C 25.83 266.086 25.568 265.992 25.313 265.891 C 24.851 265.717 24.368 265.489 23.912 265.187 C 23.831 265.133 23.825 265.08 23.825 265.019 C 23.825 264.919 23.899 264.825 24.019 264.825 C 24.127 264.825 24.341 264.979 24.381 264.999 Z" vector-effect="non-scaling-stroke"/><path fill="#000" fill-rule="evenodd" stroke="#2D1C17" stroke-linecap="butt" stroke-linejoin="miter" stroke-miterlimit="4" stroke-width=".069" d="M 28.284 261.224 L 20.975 263.658 L 20.975 252.876 L 28.284 250.441 L 28.284 261.224 Z M 28.693 250.126 L 28.693 261.392 C 28.686 261.425 28.673 261.459 28.646 261.492 C 28.633 261.512 28.606 261.539 28.586 261.546 C 28.418 261.613 20.868 264.148 20.767 264.148 C 20.687 264.148 20.613 264.094 20.573 264.007 C 20.573 264 20.566 263.993 20.566 263.98 L 20.566 252.708 C 20.579 252.674 20.586 252.627 20.613 252.601 C 20.666 252.527 20.76 252.513 20.821 252.493 C 20.935 252.453 28.371 249.959 28.478 249.959 C 28.546 249.959 28.693 250.006 28.693 250.126 Z" vector-effect="non-scaling-stroke"/><path fill="#000" fill-rule="evenodd" stroke="#2D1C17" stroke-linecap="butt" stroke-linejoin="miter" stroke-miterlimit="4" stroke-width=".069" d="M 34.782 261.278 L 28.7 259.387 L 28.7 250.301 L 34.782 248.235 L 34.782 261.278 Z M 35.191 247.967 L 35.191 261.532 C 35.184 261.687 35.077 261.754 34.976 261.754 C 34.889 261.754 34.259 261.539 34.151 261.506 C 33.307 261.244 32.455 260.983 31.617 260.721 C 31.429 260.661 31.234 260.6 31.053 260.54 C 30.893 260.493 30.718 260.439 30.557 260.386 C 29.84 260.165 29.109 259.943 28.391 259.702 C 28.364 259.695 28.297 259.601 28.297 259.581 L 28.297 250.106 C 28.311 250.073 28.324 250.032 28.358 250.006 C 28.411 249.945 30.711 249.181 31.617 248.879 C 31.858 248.792 34.882 247.752 34.976 247.752 C 35.097 247.752 35.191 247.84 35.191 247.967 Z" vector-effect="non-scaling-stroke"/><path fill="#2D1C17" d="M 36.734 264.119 L 28.609 261.529 L 28.643 250.255 L 36.734 252.83 L 36.734 264.119 Z"/><g><path fill="#FFF" fill-rule="evenodd" d="M 32.638 255.294 L 31.841 257.221 L 33.307 257.665 L 32.638 255.294 Z M 32.16 253.474 L 33.207 253.791 L 35.114 260.664 L 34.039 260.338 L 33.653 258.927 L 31.43 258.253 L 30.952 259.403 L 29.877 259.076 L 32.16 253.474 Z"/></g></g></g></g></svg>