<svg xmlns="http://www.w3.org/2000/svg" xml:space="preserve" style="enable-background:new 0 0 24 24" viewBox="0 0 24 24"><path d="M22.6 4.5H11c-.8 0-1.4.6-1.4 1.4v.7h-.7L6 14.8 3.1 6.6H0v11.3h2.3v-3.1l-.2-5.3 3.1 8.4h1.6l3.1-8.5-.2 5.4V18.1c0 .8.6 1.4 1.4 1.4h11.6c.8 0 1.4-.6 1.4-1.4v-3.6c0 1.1-.3 1.9-1 2.5-.7.6-1.7.8-3 .9h-4.2c1.3 0 2.3-.3 3-.9.3-.3.6-.6.8-1h.4c.6 0 1-.1 1.3-.4.3-.3.5-.7.5-1.1 0-1-.5-1.6-1.6-1.6h-.8c-.3-.4-.8-.8-1.4-.9.4-.2.8-.4 1.1-.8h.7c1.2 0 1.8-.5 1.8-1.4 0-.5-.1-.9-.4-1.1-.3-.2-.8-.3-1.4-.3h-.2c-.2-.4-.5-.8-.9-1.1-.7-.5-1.6-.8-2.9-.8h4c1.4 0 2.4.3 3.1.8.7.5 1.1 1.3 1.1 2.3 0 .5-.1 1-.4 1.5-.3.4-.7.8-1.2.9.5.1 1 .4 1.4.9.3.5.5 1 .5 1.6V5.9c-.4-.8-1-1.4-1.8-1.4zm-5.9 2.8c.7.5 1.1 1.3 1.1 2.3 0 .5-.1 1-.4 1.5-.3.4-.7.8-1.2.9.5.1 1 .4 1.4.9.3.5.5 1 .5 1.6 0 1.1-.3 1.9-1 2.5s-1.7.8-3 .9H12V16h2c.6 0 1-.1 1.3-.4.3-.3.5-.7.5-1.1 0-1-.5-1.6-1.6-1.6H12v-1.7l1.7.1c1.2 0 1.8-.5 1.8-1.4 0-.5-.1-.9-.4-1.1-.3-.2-.8-.3-1.4-.3h-1.6V6.6h1.6c1.3-.1 2.3.2 3 .7z" style="fill:#ffb86b"/></svg>