<?xml version="1.0" encoding="UTF-8" standalone="no"?><!-- Generator: Gravit.io --><svg xmlns="http://www.w3.org/2000/svg" xmlns:xlink="http://www.w3.org/1999/xlink" style="isolation:isolate" viewBox="454.198 199.656 9.836 7.26" width="9.836pt" height="7.26pt"><g style="opacity:0.8;"><g><g><path d=" M 457.198 206.916 C 457.796 206.916 458.367 206.742 458.854 206.418 C 458.788 206.361 458.724 206.3 458.661 206.236 C 458.519 206.09 458.392 205.933 458.279 205.768 C 457.961 205.955 457.592 206.062 457.196 206.062 C 456.014 206.062 455.052 205.099 455.052 203.917 C 455.052 203.007 455.622 202.227 456.423 201.917 L 455.805 201.259 C 455.539 201.398 455.293 201.578 455.075 201.796 C 454.509 202.362 454.198 203.115 454.198 203.916 C 454.198 204.717 454.509 205.47 455.075 206.036 C 455.643 206.604 456.397 206.916 457.198 206.916 Z " fill="rgb(255,255,255)"/><path d=" M 459.935 202.078 C 460.257 201.885 460.633 201.772 461.036 201.772 C 461.731 201.772 462.35 202.105 462.742 202.619 C 463.017 202.98 463.18 203.43 463.18 203.917 C 463.18 205.099 462.218 206.062 461.036 206.062 C 460.496 206.062 459.96 205.849 459.566 205.478 C 459.14 205.077 458.891 204.502 458.891 203.917 C 458.891 203.73 458.916 203.547 458.961 203.374 C 458.914 203.221 458.847 203.074 458.761 202.937 C 458.659 202.774 458.533 202.629 458.387 202.506 C 458.159 202.936 458.037 203.416 458.037 203.916 C 458.037 204.78 458.423 205.624 459.078 206.188 C 459.597 206.635 460.273 206.896 460.958 206.914 C 460.984 206.915 461.009 206.915 461.036 206.915 C 461.837 206.915 462.59 206.603 463.156 206.037 C 463.722 205.471 464.034 204.718 464.034 203.917 C 464.034 203.116 463.722 202.363 463.156 201.797 C 462.59 201.231 461.837 200.919 461.036 200.919 C 460.43 200.919 459.853 201.098 459.361 201.43 C 459.579 201.618 459.772 201.837 459.935 202.078 Z " fill="rgb(255,255,255)"/><path d=" M 458.996 201.519 C 458.868 201.422 458.731 201.335 458.587 201.26 L 457.971 201.917 C 457.989 201.924 458.008 201.932 458.026 201.939 C 458.478 202.129 458.859 202.475 459.09 202.908 C 459.338 203.372 459.406 203.927 459.279 204.437 L 459.346 204.603 C 459.457 204.875 459.635 205.117 459.857 205.308 C 460.034 204.97 460.144 204.602 460.183 204.217 C 460.192 204.118 460.198 204.017 460.198 203.918 C 460.196 202.98 459.735 202.081 458.996 201.519 Z " fill="rgb(255,255,255)"/><path d=" M 457.002 202.095 C 457.054 202.151 457.126 202.179 457.196 202.179 C 457.267 202.179 457.339 202.152 457.391 202.095 L 457.649 201.821 L 458.723 200.68 C 458.806 200.591 458.819 200.457 458.754 200.354 L 458.388 199.78 C 458.339 199.703 458.255 199.656 458.163 199.656 L 456.232 199.656 C 456.141 199.656 456.056 199.703 456.007 199.78 L 455.641 200.354 C 455.576 200.457 455.588 200.591 455.672 200.68 L 457.002 202.095 Z " fill="rgb(255,255,255)"/></g></g></g></svg>