<svg xmlns="http://www.w3.org/2000/svg" xmlns:xlink="http://www.w3.org/1999/xlink" style="isolation:isolate" width="11.339" height="11.339" viewBox="455.094 116.569 8.504 8.504"><g opacity=".8"><path fill="#FFF" d="M 456.805 120.25 C 457.485 121.587 458.581 122.678 459.918 123.363 L 460.957 122.324 C 461.085 122.196 461.274 122.154 461.439 122.21 C 461.968 122.385 462.54 122.48 463.126 122.48 C 463.386 122.48 463.598 122.692 463.598 122.952 L 463.598 124.601 C 463.598 124.861 463.386 125.073 463.126 125.073 C 458.69 125.073 455.094 121.478 455.094 117.042 C 455.094 116.782 455.307 116.569 455.567 116.569 L 457.22 116.569 C 457.48 116.569 457.693 116.782 457.693 117.042 C 457.693 117.632 457.787 118.199 457.962 118.728 C 458.014 118.894 457.976 119.078 457.844 119.21 L 456.805 120.25 Z"/></g></svg>