<?xml version="1.0" encoding="UTF-8" standalone="no"?><!-- Generator: Gravit.io --><svg xmlns="http://www.w3.org/2000/svg" xmlns:xlink="http://www.w3.org/1999/xlink" style="isolation:isolate" viewBox="217.772 96.031 21.194 16.587" width="21.194pt" height="16.587pt"><path d=" M 238.966 112.618 L 238.966 103.403 L 233.898 103.403 L 233.898 102.482 C 233.898 100.703 234.931 99.256 236.201 99.256 L 236.662 99.256 L 236.662 96.031 L 236.201 96.031 C 232.645 96.031 229.751 98.925 229.751 102.482 L 229.751 112.618 L 238.966 112.618 Z  M 226.986 112.618 L 226.986 103.403 L 221.918 103.403 L 221.918 102.482 C 221.918 100.703 222.951 99.256 224.222 99.256 L 224.683 99.256 L 224.683 96.031 L 224.222 96.031 C 220.666 96.031 217.772 98.925 217.772 102.482 L 217.772 112.618 L 226.986 112.618 Z " fill="rgb(99,100,103)"/></svg>