<svg xmlns="http://www.w3.org/2000/svg" xmlns:xlink="http://www.w3.org/1999/xlink" style="isolation:isolate" width="28.259" height="22.116" viewBox="401.448 188.682 21.194 16.587"><path fill="#636467" d="M 401.448 188.682 L 401.448 197.896 L 406.516 197.896 L 406.516 198.818 C 406.516 200.596 405.483 202.043 404.212 202.043 L 403.751 202.043 L 403.751 205.268 L 404.212 205.268 C 407.769 205.268 410.662 202.374 410.662 198.818 L 410.662 188.682 L 401.448 188.682 Z M 413.427 188.682 L 413.427 197.896 L 418.495 197.896 L 418.495 198.818 C 418.495 200.596 417.462 202.043 416.191 202.043 L 415.731 202.043 L 415.731 205.268 L 416.191 205.268 C 419.748 205.268 422.642 202.374 422.642 198.818 L 422.642 188.682 L 413.427 188.682 Z"/></svg>