<svg xmlns="http://www.w3.org/2000/svg" xmlns:xlink="http://www.w3.org/1999/xlink" style="isolation:isolate" width="20pt" height="24" viewBox="16.402 601.112 20 18"><path fill="#0868B7" d="M 24.402 614.112 L 24.402 613.112 L 17.412 613.112 L 17.402 617.112 C 17.402 618.222 18.292 619.112 19.402 619.112 L 33.402 619.112 C 34.512 619.112 35.402 618.222 35.402 617.112 L 35.402 613.112 L 28.402 613.112 L 28.402 614.112 L 24.402 614.112 Z M 34.402 605.112 L 30.392 605.112 L 30.392 603.112 L 28.392 601.112 L 24.392 601.112 L 22.392 603.112 L 22.392 605.112 L 18.402 605.112 C 17.302 605.112 16.402 606.012 16.402 607.112 L 16.402 610.112 C 16.402 611.222 17.292 612.112 18.402 612.112 L 24.402 612.112 L 24.402 610.112 L 28.402 610.112 L 28.402 612.112 L 34.402 612.112 C 35.502 612.112 36.402 611.212 36.402 610.112 L 36.402 607.112 C 36.402 606.012 35.502 605.112 34.402 605.112 Z M 28.402 605.112 L 24.402 605.112 L 24.402 603.112 L 28.402 603.112 L 28.402 605.112 Z"/></svg>